<svg xmlns="http://www.w3.org/2000/svg" version="1.1" xmlns:xlink="http://www.w3.org/1999/xlink" xmlns:svgjs="http://svgjs.dev/svgjs" width="1920" height="1080" preserveAspectRatio="none" viewBox="0 0 1920 1080">
    <g mask="url(&quot;#SvgjsMask1045&quot;)" fill="none">
        <rect width="1920" height="1080" x="0" y="0" fill="rgba(54, 56, 58, 1)"></rect>
        <path d="M25 1080L1105 0L1334.5 0L254.5 1080z" fill="url(&quot;#SvgjsLinearGradient1046&quot;)"></path>
        <path d="M743.6 1080L1823.6 0L2684.6 0L1604.6 1080z" fill="url(&quot;#SvgjsLinearGradient1046&quot;)"></path>
        <path d="M1850 1080L770 0L263 0L1343 1080z" fill="url(&quot;#SvgjsLinearGradient1047&quot;)"></path>
        <path d="M1216.4 1080L136.4000000000001 0L-40.59999999999991 0L1039.4 1080z" fill="url(&quot;#SvgjsLinearGradient1047&quot;)"></path>
        <path d="M1121.9003862012855 1080L1920 281.9003862012854L1920 1080z" fill="url(&quot;#SvgjsLinearGradient1046&quot;)"></path>
        <path d="M0 1080L798.0996137987146 1080L 0 281.9003862012854z" fill="url(&quot;#SvgjsLinearGradient1047&quot;)"></path>
    </g>
    <defs>
        <mask id="SvgjsMask1045">
            <rect width="1920" height="1080" fill="#ffffff"></rect>
        </mask>
        <linearGradient x1="0%" y1="100%" x2="100%" y2="0%" id="SvgjsLinearGradient1046">
            <stop stop-color="rgba(25, 27, 31, 0.86)" offset="0"></stop>
            <stop stop-opacity="0" stop-color="rgba(25, 27, 31, 0.86)" offset="0.66"></stop>
        </linearGradient>
        <linearGradient x1="100%" y1="100%" x2="0%" y2="0%" id="SvgjsLinearGradient1047">
            <stop stop-color="rgba(25, 27, 31, 0.86)" offset="0"></stop>
            <stop stop-opacity="0" stop-color="rgba(25, 27, 31, 0.86)" offset="0.66"></stop>
        </linearGradient>
    </defs>
</svg>