<svg xmlns="http://www.w3.org/2000/svg" viewBox="0 0 1200 600" fill="none">
  <rect width="1200" height="600" fill="black" />
  <g>
    <!-- Circuit Design -->
    <rect x="200" y="250" width="100" height="100" fill="white" rx="20" />
    <circle cx="160" cy="300" r="15" fill="white" />
    <line x1="175" y1="300" x2="200" y2="300" stroke="white" stroke-width="10" />
    <circle cx="340" cy="300" r="15" fill="white" />
    <line x1="300" y1="300" x2="340" y2="300" stroke="white" stroke-width="10" />
    <circle cx="250" cy="400" r="15" fill="white" />
    <line x1="250" y1="350" x2="250" y2="400" stroke="white" stroke-width="10" />
    <circle cx="250" cy="200" r="15" fill="white" />
    <line x1="250" y1="250" x2="250" y2="200" stroke="white" stroke-width="10" />
    <circle cx="180" cy="360" r="15" fill="white" />
    <line x1="200" y1="350" x2="180" y2="360" stroke="white" stroke-width="10" />
    <circle cx="180" cy="240" r="15" fill="white" />
    <line x1="200" y1="250" x2="180" y2="240" stroke="white" stroke-width="10" />
    <circle cx="320" cy="360" r="15" fill="white" />
    <line x1="300" y1="350" x2="320" y2="360" stroke="white" stroke-width="10" />
    <circle cx="320" cy="240" r="15" fill="white" />
    <line x1="300" y1="250" x2="320" y2="240" stroke="white" stroke-width="10" />
  </g>
  <!-- Text -->
  <text x="400" y="325" fill="white" font-family="Arial, sans-serif" font-size="100" font-weight="bold">SCRIPTIFY</text>
  <text x="400" y="375" fill="white" font-family="Arial, sans-serif" font-size="30" letter-spacing="5">AI CONTENT, INSTANTLY!</text>
</svg>
